{
    "asset" : {
        "generator" : "Khronos glTF Blender I/O v1.1.46",
        "version" : "2.0"
    },
    "scene" : 0,
    "scenes" : [
        {
            "name" : "Scene",
            "nodes" : [
                0,
                1,
                2,
                3,
                4,
                5,
                6,
                7
            ]
        }
    ],
    "nodes" : [
        {
            "mesh" : 0,
            "name" : "Plane",
            "rotation" : [
                0.5054490566253662,
                -0.4674065411090851,
                0.4917224049568176,
                0.5331617593765259
            ],
            "translation" : [
                3.1909351348876953,
                -0.04142921790480614,
                -1.1911817789077759
            ]
        },
        {
            "mesh" : 1,
            "name" : "Cube",
            "scale" : [
                0.1976301074028015,
                0.1976301074028015,
                0.1976301074028015
            ],
            "translation" : [
                -1.4712083339691162,
                -0.7488588094711304,
                -0.45247483253479004
            ]
        },
        {
            "mesh" : 2,
            "name" : "Cube.001",
            "scale" : [
                0.1976301074028015,
                0.1976301074028015,
                0.1976301074028015
            ],
            "translation" : [
                0.5028738975524902,
                -0.6607908010482788,
                -1.0916070938110352
            ]
        },
        {
            "mesh" : 3,
            "name" : "Sphere",
            "scale" : [
                -0.1823406219482422,
                -0.1823406219482422,
                -0.1823406219482422
            ],
            "translation" : [
                0.20502643287181854,
                0.19792945683002472,
                1.364207148551941
            ]
        },
        {
            "mesh" : 4,
            "name" : "Plane.001",
            "rotation" : [
                -0.42226940393447876,
                0.5566887259483337,
                0.43880850076675415,
                0.5650073885917664
            ],
            "scale" : [
                -1,
                1,
                -1
            ],
            "translation" : [
                3.047233819961548,
                0.08303695917129517,
                1.2744288444519043
            ]
        },
        {
            "mesh" : 5,
            "name" : "Plane.002",
            "rotation" : [
                0.6049781441688538,
                -0.2893860340118408,
                0.3497735559940338,
                0.6541526317596436
            ],
            "translation" : [
                -1.0547592639923096,
                -0.10805124044418335,
                -3.282733201980591
            ]
        },
        {
            "mesh" : 6,
            "name" : "Sphere.001",
            "rotation" : [
                0,
                0,
                -1,
                -4.371138828673793e-08
            ],
            "scale" : [
                -7.306929111480713,
                -7.306929111480713,
                -7.306929111480713
            ]
        },
        {
            "mesh" : 7,
            "name" : "Sphere.002",
            "scale" : [
                5.758755207061768,
                1.6980094909667969,
                5.758755207061768
            ],
            "translation" : [
                0,
                -2.628608465194702,
                0
            ]
        }
    ],
    "materials" : [
        {
            "alphaCutoff" : 0.5,
            "alphaMode" : "MASK",
            "doubleSided" : true,
            "emissiveFactor" : [
                0,
                0,
                0
            ],
            "name" : "Material.001",
            "pbrMetallicRoughness" : {
                "baseColorTexture" : {
                    "index" : 0,
                    "texCoord" : 0
                },
                "metallicFactor" : 0,
                "roughnessFactor" : 0.5
            }
        },
        {
            "doubleSided" : true,
            "emissiveFactor" : [
                0,
                0,
                0
            ],
            "name" : "Material.003",
            "pbrMetallicRoughness" : {
                "baseColorFactor" : [
                    0,
                    0.8000000715255737,
                    0.1194707527756691,
                    1
                ],
                "metallicFactor" : 0,
                "roughnessFactor" : 0.5
            }
        },
        {
            "doubleSided" : true,
            "emissiveFactor" : [
                0,
                0,
                0
            ],
            "name" : "Material.002",
            "pbrMetallicRoughness" : {
                "baseColorFactor" : [
                    0.042737849056720734,
                    0.26812228560447693,
                    0.8000000715255737,
                    1
                ],
                "metallicFactor" : 0,
                "roughnessFactor" : 0.5
            }
        },
        {
            "alphaCutoff" : 0.5,
            "alphaMode" : "MASK",
            "doubleSided" : true,
            "emissiveFactor" : [
                0,
                0,
                0
            ],
            "name" : "Material.004",
            "pbrMetallicRoughness" : {
                "baseColorTexture" : {
                    "index" : 1,
                    "texCoord" : 0
                },
                "metallicFactor" : 0,
                "roughnessFactor" : 0.5
            }
        },
        {
            "doubleSided" : true,
            "emissiveFactor" : [
                0,
                0,
                0
            ],
            "name" : "Material.005",
            "pbrMetallicRoughness" : {
                "baseColorFactor" : [
                    0.800000011920929,
                    0.800000011920929,
                    0.800000011920929,
                    1
                ],
                "metallicFactor" : 0,
                "roughnessFactor" : 0.5
            }
        },
        {
            "doubleSided" : true,
            "emissiveFactor" : [
                0,
                0,
                0
            ],
            "name" : "Material.006",
            "pbrMetallicRoughness" : {
                "baseColorTexture" : {
                    "index" : 2,
                    "texCoord" : 0
                },
                "metallicFactor" : 0,
                "roughnessFactor" : 0.5
            }
        },
        {
            "doubleSided" : true,
            "emissiveFactor" : [
                0,
                0,
                0
            ],
            "name" : "Material.007",
            "pbrMetallicRoughness" : {
                "baseColorFactor" : [
                    0.8000000715255737,
                    0.21766917407512665,
                    0.5724970102310181,
                    1
                ],
                "metallicFactor" : 0,
                "roughnessFactor" : 0.5
            }
        }
    ],
    "meshes" : [
        {
            "name" : "Plane",
            "primitives" : [
                {
                    "attributes" : {
                        "POSITION" : 0,
                        "NORMAL" : 1,
                        "TEXCOORD_0" : 2
                    },
                    "indices" : 3,
                    "material" : 0
                }
            ]
        },
        {
            "name" : "Cube.001",
            "primitives" : [
                {
                    "attributes" : {
                        "POSITION" : 4,
                        "NORMAL" : 5,
                        "TEXCOORD_0" : 6
                    },
                    "indices" : 7,
                    "material" : 1
                }
            ]
        },
        {
            "name" : "Cube.002",
            "primitives" : [
                {
                    "attributes" : {
                        "POSITION" : 8,
                        "NORMAL" : 9,
                        "TEXCOORD_0" : 10
                    },
                    "indices" : 7,
                    "material" : 2
                }
            ]
        },
        {
            "name" : "Sphere",
            "primitives" : [
                {
                    "attributes" : {
                        "POSITION" : 11,
                        "NORMAL" : 12,
                        "TEXCOORD_0" : 13
                    },
                    "indices" : 14
                }
            ]
        },
        {
            "name" : "Plane.001",
            "primitives" : [
                {
                    "attributes" : {
                        "POSITION" : 15,
                        "NORMAL" : 16,
                        "TEXCOORD_0" : 17
                    },
                    "indices" : 3,
                    "material" : 3
                }
            ]
        },
        {
            "name" : "Plane.002",
            "primitives" : [
                {
                    "attributes" : {
                        "POSITION" : 18,
                        "NORMAL" : 19,
                        "TEXCOORD_0" : 20
                    },
                    "indices" : 3,
                    "material" : 4
                }
            ]
        },
        {
            "name" : "Sphere.001",
            "primitives" : [
                {
                    "attributes" : {
                        "POSITION" : 21,
                        "NORMAL" : 22,
                        "TEXCOORD_0" : 23
                    },
                    "indices" : 24,
                    "material" : 5
                }
            ]
        },
        {
            "name" : "Sphere.002",
            "primitives" : [
                {
                    "attributes" : {
                        "POSITION" : 25,
                        "NORMAL" : 26,
                        "TEXCOORD_0" : 27
                    },
                    "indices" : 28,
                    "material" : 6
                }
            ]
        }
    ],
    "textures" : [
        {
            "source" : 0
        },
        {
            "source" : 1
        },
        {
            "source" : 2
        }
    ],
    "images" : [
        {
            "bufferView" : 4,
            "mimeType" : "image/png",
            "name" : "programmer"
        },
        {
            "bufferView" : 19,
            "mimeType" : "image/png",
            "name" : "artist"
        },
        {
            "bufferView" : 27,
            "mimeType" : "image/png",
            "name" : "360"
        }
    ],
    "accessors" : [
        {
            "bufferView" : 0,
            "componentType" : 5126,
            "count" : 4,
            "max" : [
                1,
                0,
                1
            ],
            "min" : [
                -1,
                0,
                -1
            ],
            "type" : "VEC3"
        },
        {
            "bufferView" : 1,
            "componentType" : 5126,
            "count" : 4,
            "type" : "VEC3"
        },
        {
            "bufferView" : 2,
            "componentType" : 5126,
            "count" : 4,
            "type" : "VEC2"
        },
        {
            "bufferView" : 3,
            "componentType" : 5123,
            "count" : 6,
            "type" : "SCALAR"
        },
        {
            "bufferView" : 5,
            "componentType" : 5126,
            "count" : 24,
            "max" : [
                1,
                1,
                1
            ],
            "min" : [
                -1,
                -1,
                -1
            ],
            "type" : "VEC3"
        },
        {
            "bufferView" : 6,
            "componentType" : 5126,
            "count" : 24,
            "type" : "VEC3"
        },
        {
            "bufferView" : 7,
            "componentType" : 5126,
            "count" : 24,
            "type" : "VEC2"
        },
        {
            "bufferView" : 8,
            "componentType" : 5123,
            "count" : 36,
            "type" : "SCALAR"
        },
        {
            "bufferView" : 9,
            "componentType" : 5126,
            "count" : 24,
            "max" : [
                1,
                1,
                1
            ],
            "min" : [
                -1,
                -1,
                -1
            ],
            "type" : "VEC3"
        },
        {
            "bufferView" : 10,
            "componentType" : 5126,
            "count" : 24,
            "type" : "VEC3"
        },
        {
            "bufferView" : 11,
            "componentType" : 5126,
            "count" : 24,
            "type" : "VEC2"
        },
        {
            "bufferView" : 12,
            "componentType" : 5126,
            "count" : 1984,
            "max" : [
                1.000000238418579,
                1,
                1.0000003576278687
            ],
            "min" : [
                -0.9999998211860657,
                -1,
                -1
            ],
            "type" : "VEC3"
        },
        {
            "bufferView" : 13,
            "componentType" : 5126,
            "count" : 1984,
            "type" : "VEC3"
        },
        {
            "bufferView" : 14,
            "componentType" : 5126,
            "count" : 1984,
            "type" : "VEC2"
        },
        {
            "bufferView" : 15,
            "componentType" : 5123,
            "count" : 2880,
            "type" : "SCALAR"
        },
        {
            "bufferView" : 16,
            "componentType" : 5126,
            "count" : 4,
            "max" : [
                1,
                0,
                1
            ],
            "min" : [
                -1,
                0,
                -1
            ],
            "type" : "VEC3"
        },
        {
            "bufferView" : 17,
            "componentType" : 5126,
            "count" : 4,
            "type" : "VEC3"
        },
        {
            "bufferView" : 18,
            "componentType" : 5126,
            "count" : 4,
            "type" : "VEC2"
        },
        {
            "bufferView" : 20,
            "componentType" : 5126,
            "count" : 4,
            "max" : [
                1,
                0,
                1
            ],
            "min" : [
                -1,
                0,
                -1
            ],
            "type" : "VEC3"
        },
        {
            "bufferView" : 21,
            "componentType" : 5126,
            "count" : 4,
            "type" : "VEC3"
        },
        {
            "bufferView" : 22,
            "componentType" : 5126,
            "count" : 4,
            "type" : "VEC2"
        },
        {
            "bufferView" : 23,
            "componentType" : 5126,
            "count" : 1984,
            "max" : [
                1.000000238418579,
                1,
                1.0000003576278687
            ],
            "min" : [
                -0.9999998211860657,
                -1,
                -1
            ],
            "type" : "VEC3"
        },
        {
            "bufferView" : 24,
            "componentType" : 5126,
            "count" : 1984,
            "type" : "VEC3"
        },
        {
            "bufferView" : 25,
            "componentType" : 5126,
            "count" : 1984,
            "type" : "VEC2"
        },
        {
            "bufferView" : 26,
            "componentType" : 5123,
            "count" : 2880,
            "type" : "SCALAR"
        },
        {
            "bufferView" : 28,
            "componentType" : 5126,
            "count" : 1984,
            "max" : [
                1.000000238418579,
                1,
                1.0000003576278687
            ],
            "min" : [
                -0.9999998211860657,
                -1,
                -1
            ],
            "type" : "VEC3"
        },
        {
            "bufferView" : 29,
            "componentType" : 5126,
            "count" : 1984,
            "type" : "VEC3"
        },
        {
            "bufferView" : 30,
            "componentType" : 5126,
            "count" : 1984,
            "type" : "VEC2"
        },
        {
            "bufferView" : 31,
            "componentType" : 5123,
            "count" : 2880,
            "type" : "SCALAR"
        }
    ],
    "bufferViews" : [
        {
            "buffer" : 0,
            "byteLength" : 48,
            "byteOffset" : 0
        },
        {
            "buffer" : 0,
            "byteLength" : 48,
            "byteOffset" : 48
        },
        {
            "buffer" : 0,
            "byteLength" : 32,
            "byteOffset" : 96
        },
        {
            "buffer" : 0,
            "byteLength" : 12,
            "byteOffset" : 128
        },
        {
            "buffer" : 0,
            "byteLength" : 32341,
            "byteOffset" : 140
        },
        {
            "buffer" : 0,
            "byteLength" : 288,
            "byteOffset" : 32484
        },
        {
            "buffer" : 0,
            "byteLength" : 288,
            "byteOffset" : 32772
        },
        {
            "buffer" : 0,
            "byteLength" : 192,
            "byteOffset" : 33060
        },
        {
            "buffer" : 0,
            "byteLength" : 72,
            "byteOffset" : 33252
        },
        {
            "buffer" : 0,
            "byteLength" : 288,
            "byteOffset" : 33324
        },
        {
            "buffer" : 0,
            "byteLength" : 288,
            "byteOffset" : 33612
        },
        {
            "buffer" : 0,
            "byteLength" : 192,
            "byteOffset" : 33900
        },
        {
            "buffer" : 0,
            "byteLength" : 23808,
            "byteOffset" : 34092
        },
        {
            "buffer" : 0,
            "byteLength" : 23808,
            "byteOffset" : 57900
        },
        {
            "buffer" : 0,
            "byteLength" : 15872,
            "byteOffset" : 81708
        },
        {
            "buffer" : 0,
            "byteLength" : 5760,
            "byteOffset" : 97580
        },
        {
            "buffer" : 0,
            "byteLength" : 48,
            "byteOffset" : 103340
        },
        {
            "buffer" : 0,
            "byteLength" : 48,
            "byteOffset" : 103388
        },
        {
            "buffer" : 0,
            "byteLength" : 32,
            "byteOffset" : 103436
        },
        {
            "buffer" : 0,
            "byteLength" : 26978,
            "byteOffset" : 103468
        },
        {
            "buffer" : 0,
            "byteLength" : 48,
            "byteOffset" : 130448
        },
        {
            "buffer" : 0,
            "byteLength" : 48,
            "byteOffset" : 130496
        },
        {
            "buffer" : 0,
            "byteLength" : 32,
            "byteOffset" : 130544
        },
        {
            "buffer" : 0,
            "byteLength" : 23808,
            "byteOffset" : 130576
        },
        {
            "buffer" : 0,
            "byteLength" : 23808,
            "byteOffset" : 154384
        },
        {
            "buffer" : 0,
            "byteLength" : 15872,
            "byteOffset" : 178192
        },
        {
            "buffer" : 0,
            "byteLength" : 5760,
            "byteOffset" : 194064
        },
        {
            "buffer" : 0,
            "byteLength" : 1751901,
            "byteOffset" : 199824
        },
        {
            "buffer" : 0,
            "byteLength" : 23808,
            "byteOffset" : 1951728
        },
        {
            "buffer" : 0,
            "byteLength" : 23808,
            "byteOffset" : 1975536
        },
        {
            "buffer" : 0,
            "byteLength" : 15872,
            "byteOffset" : 1999344
        },
        {
            "buffer" : 0,
            "byteLength" : 5760,
            "byteOffset" : 2015216
        }
    ],
    "buffers" : [
        {
            "byteLength" : 2020976,
            "uri" : "data:application/octet-stream;base64,"
        }
    ]
}
